HIERARCHY
ROOT hip
{
	OFFSET 0.000000 0.000000 0.000000 
	CHANNELS 6 Xposition Yposition Zposition Xrotation Zrotation Yrotation
	JOINT abdomen
	{
		OFFSET 0.000000 3.402643 0.000000 
		CHANNELS 3 Xrotation Zrotation Yrotation
		JOINT chest
		{
			OFFSET 0.000000 8.438565 -0.680529 
			CHANNELS 3 Xrotation Zrotation Yrotation
			JOINT neck
			{
				OFFSET 0.000000 10.207942 -0.272212 
				CHANNELS 3 Xrotation Zrotation Yrotation
				JOINT head
				{
					OFFSET 0.000000 3.130431 0.000000 
					CHANNELS 3 Xrotation Zrotation Yrotation
					End Site
					{
						OFFSET 0.000000 3.130435 0.000000 
					}
				}
			}
			JOINT lCollar
			{
				OFFSET 3.470700 6.669187 -0.816635 
				CHANNELS 3 Yrotation Zrotation Xrotation
				JOINT lShldr
				{
					OFFSET 3.198488 0.000000 0.000000 
					CHANNELS 3 Zrotation Yrotation Xrotation
					JOINT lForeArm
					{
						OFFSET 10.139888 0.000000 0.000000 
						CHANNELS 3 Yrotation Zrotation Xrotation
						JOINT lHand
						{
							OFFSET 8.370511 0.000000 0.000000 
							CHANNELS 3 Zrotation Yrotation Xrotation
							End Site
							{
								OFFSET 4.083176 0.000000 0.000000 
							}
						}
					}
				}
			}
			JOINT rCollar
			{
				OFFSET -3.470700 6.669187 -0.816635 
				CHANNELS 3 Yrotation Zrotation Xrotation
				JOINT rShldr
				{
					OFFSET -3.198488 0.000000 0.000000 
					CHANNELS 3 Zrotation Yrotation Xrotation
					JOINT rForeArm
					{
						OFFSET -10.139888 0.000000 0.000000 
						CHANNELS 3 Yrotation Zrotation Xrotation
						JOINT rHand
						{
							OFFSET -8.370511 0.000000 0.000000 
							CHANNELS 3 Zrotation Yrotation Xrotation
							End Site
							{
								OFFSET -4.083176 0.000000 0.000000 
							}
						}
					}
				}
			}
		}
	}
	JOINT lThigh
	{
		OFFSET 5.308129 -1.633274 1.361059 
		CHANNELS 3 Xrotation Zrotation Yrotation
		JOINT lShin
		{
			OFFSET -2.041588 -20.007561 0.000000 
			CHANNELS 3 Xrotation Zrotation Yrotation
			JOINT lFoot
			{
				OFFSET 0.000000 -19.190928 -1.224953 
				CHANNELS 3 Xrotation Yrotation Zrotation
				End Site
				{
					OFFSET 0.000000 -2.449906 4.627600 
				}
			}
		}
	}
	JOINT rThigh
	{
		OFFSET -5.308129 -1.633274 1.361059 
		CHANNELS 3 Xrotation Zrotation Yrotation
		JOINT rShin
		{
			OFFSET 2.041588 -20.007561 0.000000 
			CHANNELS 3 Xrotation Zrotation Yrotation
			JOINT rFoot
			{
				OFFSET 0.000000 -19.190928 -1.224953 
				CHANNELS 3 Xrotation Yrotation Zrotation
				End Site
				{
					OFFSET 0.000000 -2.449906 4.627600 
				}
			}
		}
	}
}
MOTION
Frames: 15
Frame Time: 0.016667
0.310564 39.845997 1.904143 0.361475 1.630830 -17.430799 -9.435520 -0.502944 1.715500 19.921801 0.956972 0.965960 -14.562700 3.106670 4.251690 2.072400 6.074610 3.018220 2.000000 -2.000000 0.000000 105.738998 155.455002 5.593470 21.679899 -0.341893 0.050566 0.068986 -0.066839 -161.541000 -2.000000 2.000000 0.000000 60.872398 22.424601 138.481995 -70.039597 0.261521 0.128511 -0.079654 0.068771 -162.302994 -32.299179 17.192566 15.262239 64.529350 0.993793 4.050601 -0.403585 1.932498 1.336853 -22.116354 -16.150539 -10.214832 59.489986 -1.492720 -3.821336 -16.943443 -15.203721 -5.068440 
0.188782 39.283207 4.360868 -0.341832 0.820298 -16.342800 -10.477500 0.457292 1.822260 18.717699 3.279560 0.900793 -11.035500 4.791020 4.802140 3.241610 7.159030 3.419410 2.000000 -2.000000 0.000000 107.554001 154.826004 -0.677543 19.756100 -0.343517 0.046273 0.064810 -0.056849 -157.673996 -2.000000 2.000000 0.000000 60.139900 16.493099 135.039993 -67.139198 0.267963 0.125984 -0.086840 0.082226 -167.751999 -30.480143 20.051323 15.515026 60.978363 1.443483 3.849660 -4.059813 -0.810144 1.681638 -18.662848 -16.514561 -10.399563 62.576641 -1.359750 -3.909180 -17.256294 -14.410581 -5.086732 
0.037334 38.734310 6.864864 -0.039063 -0.195312 -14.550600 -11.275500 0.018814 2.109240 18.610901 2.810880 1.008180 -8.650350 7.655210 4.031870 4.050230 7.880680 3.227740 2.000000 -2.000000 0.000000 113.238998 155.936005 -3.399580 19.248301 -0.343922 0.045131 0.065290 -0.058100 -158.151993 -2.000000 2.000000 0.000000 62.559502 10.515300 129.714996 -63.408699 0.276047 0.122261 179.912994 179.904007 6.125220 -30.726948 23.310347 15.577257 58.534374 1.803078 3.681118 -5.524898 -3.051402 1.788817 -15.754557 -16.303209 -11.493741 65.026611 -1.243034 -3.979799 -16.163275 -14.785380 -5.105283 
-0.072551 38.169846 9.349168 0.820434 -0.986227 -12.387300 -12.069800 0.220946 1.799850 18.697001 3.855400 0.802931 -6.920850 11.060900 3.648080 4.548420 9.392960 3.270510 2.000000 -2.000000 0.000000 116.570999 157.153000 -5.896730 20.361601 -0.343022 0.047630 0.067293 -0.063013 -160.046997 -2.000000 2.000000 0.000000 63.690498 6.656130 124.139999 -58.271999 0.286747 0.116291 179.895996 179.873993 -3.142340 -32.205853 25.793537 14.651521 57.712517 1.978271 3.594454 -6.973584 -2.367902 1.841180 -13.892817 -16.297268 -13.054176 67.791290 -1.087804 -4.070433 -14.208323 -15.061612 -4.781967 
-0.135003 37.534855 11.752419 1.524390 -2.030530 -10.376600 -12.980000 0.472099 1.589980 18.175301 4.790800 0.641538 -6.268520 12.923800 2.687500 4.759470 10.134300 2.904750 2.000000 -2.000000 0.000000 -60.232201 20.419500 171.602997 21.308800 -0.342218 0.049743 0.068590 -0.065968 -161.199005 -2.000000 2.000000 0.000000 65.220001 3.587790 117.748001 -52.979000 0.297167 0.109162 -0.121461 0.130462 168.673996 -33.745083 27.683182 11.797159 58.394394 2.035575 3.596844 -8.716784 -2.193338 1.940019 -12.714150 -15.927470 -14.272901 71.096062 -0.849638 -4.162467 -10.502990 -14.162851 -3.710303 
-0.045541 36.900860 13.984017 2.365640 -2.556420 -7.195750 -13.123900 -0.425712 0.795219 18.637800 4.040710 0.226403 -8.108700 13.819100 1.112860 4.184570 10.321800 2.296030 2.000000 -2.000000 0.000000 -56.526001 15.481700 168.987000 22.656500 -0.341014 0.052724 0.071300 -0.071673 -163.455002 -2.000000 2.000000 0.000000 68.330704 2.441930 111.183998 -48.750500 0.304992 0.102795 -0.131545 0.137120 164.358002 -35.272923 27.371403 6.878406 59.257111 1.996106 3.619535 -10.835024 -2.676184 1.923555 -12.608396 -16.687016 -16.501299 75.412827 -0.489431 -4.285055 -7.198063 -9.716961 -2.453568 
-0.031815 36.235371 15.923087 2.259320 -3.171370 -6.629310 -12.887700 -0.370317 1.107320 18.401501 4.508540 0.348615 -10.596900 14.107600 -0.346261 3.450060 10.459500 1.772810 2.000000 -2.000000 0.000000 -54.881199 8.428240 167.832993 23.642799 -0.340089 0.054888 0.072379 -0.073794 -164.304993 -2.000000 2.000000 0.000000 70.594200 2.152950 105.929001 -45.303200 0.311009 0.097188 -0.130426 0.136434 164.826004 -33.787189 28.277252 4.322852 60.883186 1.954955 3.667249 -14.886531 -5.118906 1.483823 -14.258903 -16.949789 -16.070637 80.771393 -0.000829 -4.422090 -8.862043 -3.164228 -1.672138 
-0.010219 35.682552 17.717131 2.365990 -2.741810 -6.226860 -12.555000 -0.450613 1.249580 18.133600 5.454130 0.345839 -12.540600 14.957400 -1.959010 3.012580 10.888900 1.275370 2.000000 -2.000000 0.000000 -54.458698 0.005621 165.839996 24.267799 -0.339483 0.056251 0.070984 -0.071037 -163.201004 -2.000000 2.000000 0.000000 73.071098 2.134390 104.375999 -44.385201 0.312554 0.095635 -0.138182 0.140938 161.623001 -31.637064 28.024904 3.817806 62.061272 1.885616 3.728664 -19.902668 -5.167454 1.101413 -17.072481 -18.503992 -16.506363 85.967354 0.550172 -4.525627 -11.862460 -0.083753 -1.107655 
-0.071340 35.398899 19.485443 3.106240 -1.277420 -6.641780 -11.551400 -1.319610 1.480380 19.457001 5.916890 0.375517 -15.583100 16.625500 -3.759550 2.254200 11.531300 0.887218 2.000000 -2.000000 0.000000 -53.599499 -9.316730 163.263000 25.029600 -0.338725 0.057903 0.068669 -0.066142 -161.266998 -2.000000 2.000000 0.000000 76.408897 5.347800 103.470001 -44.131302 0.312977 0.095201 -0.141105 0.142489 160.442001 -29.502514 26.676493 5.360461 62.513943 1.827792 3.749019 -22.683359 -2.785806 1.665930 -21.421907 -20.565893 -16.712132 89.805382 1.047117 -4.627510 -13.196337 -2.388407 -1.454929 
-0.249141 35.276112 21.162319 3.974650 -0.263038 -7.381600 -11.639900 -1.421570 1.484440 18.823601 7.359950 0.247256 -16.756701 17.781300 -5.289250 2.022590 11.989000 0.387126 2.000000 -2.000000 0.000000 -54.277199 -16.787901 163.054001 26.611601 -0.337081 0.061301 0.069492 -0.067931 -161.970993 -2.000000 2.000000 0.000000 78.658897 7.368340 105.072998 -44.893002 0.311703 0.096497 -0.143667 0.143785 159.416000 -27.093140 25.985773 6.918176 62.631039 1.829521 3.746761 -24.210634 -2.068911 1.959954 -26.610577 -21.248055 -16.686951 92.155243 1.456440 -4.724030 -14.868400 -4.945689 -1.950274 
-0.421414 35.142544 22.822565 4.746290 -0.525536 -7.533960 -11.583000 -1.116470 0.868822 18.354300 8.577740 -0.122805 -18.108400 18.685801 -6.262760 1.450060 12.444000 0.022618 2.000000 -2.000000 0.000000 -55.718800 -23.486900 163.149994 29.902700 -0.333364 0.068216 0.068952 -0.066764 -161.511993 -2.000000 2.000000 0.000000 79.595398 8.908700 108.835999 -45.547298 0.310594 0.097597 -0.143667 0.143785 159.416000 -25.027180 26.555407 7.808194 62.216454 1.900585 3.712874 -25.770451 -0.895895 2.491506 -31.296783 -20.315119 -17.228132 92.685509 1.679553 -4.779413 -17.146954 -5.716038 -2.129487 
-0.629335 35.222641 24.557405 5.586070 -0.398489 -7.167950 -11.261600 -1.050940 0.051996 18.212299 9.152620 -0.548793 -17.930700 19.080900 -6.875680 1.678770 12.631100 -0.190345 2.000000 -2.000000 0.000000 -57.390202 -31.572100 163.524002 32.344101 -0.330354 0.073203 0.069078 -0.067038 -161.619003 -2.000000 2.000000 0.000000 79.669701 11.563000 111.262001 -45.957500 0.309893 0.098280 -0.144231 0.144063 159.192001 -22.780806 26.293884 8.487031 60.829132 2.049816 3.634867 -26.557562 -0.704084 2.655873 -35.931065 -19.527596 -17.791813 91.298019 1.712935 -4.839948 -18.070742 -7.303070 -2.420803 
-0.870230 35.245895 26.353355 6.650850 0.669294 -6.826150 -10.841100 -1.567160 -0.670188 18.638700 8.959900 -0.893915 -17.908001 19.409700 -7.419410 1.798670 12.661100 -0.407838 2.000000 -2.000000 0.000000 -59.253601 -39.949402 164.227997 33.994499 -0.328199 0.076499 0.067037 -0.062409 -159.811996 -2.000000 2.000000 0.000000 80.099098 13.326700 115.308998 -48.008301 0.306316 0.101618 -0.145585 0.144719 158.654007 -20.357525 25.051710 9.583057 58.783772 2.236789 3.530303 -26.755079 0.106044 3.090886 -41.011673 -19.879904 -16.330099 90.071548 1.633931 -4.863162 -21.019310 -3.078665 -1.117956 
-1.180754 35.439453 28.303997 8.129940 1.991520 -6.707580 -10.735500 -1.475880 -1.551780 18.951700 9.693530 -1.334190 -18.367300 19.624500 -7.719020 1.697330 12.836100 -0.477451 2.000000 -2.000000 0.000000 116.427002 -133.367004 -13.214800 36.728901 -0.324424 0.081819 0.067901 -0.064418 -160.593994 -2.000000 2.000000 0.000000 79.190498 15.470800 119.288002 -51.016102 0.300858 0.106278 -0.144772 0.144327 158.977005 -17.573832 23.094425 10.806940 55.588757 2.495172 3.390370 -25.743418 0.713864 3.550801 -47.006065 -19.980963 -14.349380 87.713593 1.436453 -4.854345 -22.142271 -5.915861 -1.905283 
-1.536708 35.695133 30.340799 9.895150 2.847690 -6.846860 -10.980100 -1.311730 -2.237210 18.575100 9.720860 -1.661330 -18.458700 19.813700 -8.047050 1.837160 12.895600 -0.525219 2.000000 -2.000000 0.000000 111.231003 -129.141006 -7.770650 40.908600 -0.318173 0.089587 0.070876 -0.070816 -163.113007 -2.000000 2.000000 0.000000 78.817596 17.917900 122.592003 -55.342300 0.292596 0.112464 -0.137223 0.140412 162.014008 -15.014209 21.837271 11.489558 51.863308 2.720021 3.204264 -22.926243 1.484379 3.843093 -52.423660 -19.498516 -12.311702 84.344055 1.117735 -4.822852 -23.113562 -7.656991 -2.427794 
